<svg width="758" height="673" viewBox="0 0 758 673" fill="none" xmlns="http://www.w3.org/2000/svg">
<line x1="147.609" y1="606.689" x2="182.609" y2="562.689" stroke="white"/>
<path d="M191.206 135.664C178.998 137.84 174.994 150.703 179.193 174.251L180.857 183.584C182.851 194.768 186.031 203.261 190.398 209.065C194.75 214.79 200.077 217.091 206.378 215.967C215.041 214.423 221.493 204.577 225.733 186.431L227.86 186.052L231.73 212.544L230.431 212.775C229.804 211.993 229.265 211.48 228.815 211.235C228.351 210.912 227.725 210.82 226.938 210.96C226.229 211.087 223.506 212.222 218.769 214.367C214.018 216.433 209.083 217.923 203.964 218.836C191.126 221.125 180.545 219.436 172.221 213.769C163.976 208.088 158.618 198.317 156.146 184.455C153.66 170.515 155.406 159.112 161.382 150.245C167.437 141.364 176.687 135.815 189.13 133.596C193.935 132.739 198.733 132.534 203.526 132.979C208.383 133.332 211.206 133.438 211.993 133.298C212.781 133.157 213.343 132.895 213.681 132.509C214.005 132.045 214.325 131.338 214.643 130.387L215.943 130.156L221.459 155.623L219.333 156.002C214.37 148.679 209.627 143.268 205.102 139.768C200.642 136.175 196.01 134.807 191.206 135.664ZM274.108 181.097L272.317 171.055C270.955 163.416 269.532 157.94 268.048 154.629C266.628 151.226 264.422 149.791 261.429 150.324C259.697 150.633 258.37 151.398 257.45 152.619C256.595 153.746 256.135 155.494 256.069 157.862C255.992 161.533 256.6 166.991 257.892 174.237L259.535 183.451C261.066 192.036 262.222 197.152 263.003 198.801C263.863 200.435 264.667 201.755 265.415 202.759C266.619 204.495 268.48 205.138 271.001 204.688C274.072 204.141 275.765 202.011 276.078 198.298C276.337 195.651 275.681 189.918 274.108 181.097ZM271.144 206.857C261.299 208.612 253.407 207.419 247.468 203.277C241.528 199.136 237.723 192.379 236.052 183.006C234.367 173.556 235.753 165.832 240.21 159.837C244.731 153.749 251.875 149.834 261.641 148.093C271.407 146.351 279.113 147.415 284.76 151.284C290.393 155.074 294.066 161.773 295.779 171.382C299.36 191.465 291.148 203.29 271.144 206.857ZM287.973 111.218L316.917 106.057L332.336 192.533L338.951 191.354L339.33 193.48L304.244 199.736L303.865 197.61L310.362 196.451L295.322 112.101L288.352 113.344L287.973 111.218ZM372.904 188.713C362.744 190.524 354.641 189.287 348.595 185.002C342.614 180.624 338.794 173.788 337.137 164.495C335.466 155.123 337.023 147.45 341.809 141.477C346.674 135.491 353.517 131.711 362.338 130.138C380.216 126.95 390.401 134.398 392.894 152.481L359.58 158.421L360.401 163.029C361.777 170.747 363.801 176.399 366.472 179.986C369.143 183.573 372.92 184.931 377.803 184.06C386.939 182.431 392.054 176.481 393.148 166.21L395.338 166.185C394.852 172.122 392.922 177.017 389.545 180.87C386.248 184.708 380.701 187.322 372.904 188.713ZM359.276 156.037L371.444 153.868L370.412 148.079C369.275 141.7 368.109 137.438 366.914 135.295C365.784 133.058 364.077 132.144 361.793 132.551C359.588 132.944 358.158 134.499 357.505 137.216C356.917 139.84 357.163 144.184 358.244 150.249L359.276 156.037ZM425.757 121.024C422.292 121.642 420.148 123.974 419.326 128.021C418.504 132.069 418.872 138.463 420.431 147.205L421.526 153.349C422.916 161.146 424.78 166.583 427.116 169.661C429.453 172.738 432.944 173.863 437.591 173.034C442.238 172.206 445.658 169.971 447.853 166.329C450.048 162.687 451.181 158.787 451.253 154.63L453.421 154.487C453.076 161.212 451.47 166.334 448.603 169.852C445.579 173.398 440.958 175.969 434.742 177.565L432.521 183.568C434.133 183.037 435.411 182.687 436.357 182.518C444.626 181.044 449.386 183.811 450.636 190.821C451.211 194.05 450.417 197.117 448.254 200.022C446.104 203.005 442.273 204.989 436.76 205.972C433.137 206.618 430.05 206.396 427.499 205.307C425.041 204.282 423.637 202.786 423.286 200.817C422.935 198.848 423.147 197.306 423.924 196.193C424.7 195.079 425.837 194.389 427.333 194.122C430.011 193.645 432.089 194.818 433.568 197.642L430.918 200.553C431.114 201.655 431.605 202.584 432.39 203.338C433.188 204.171 434.296 204.461 435.714 204.208C437.21 203.941 438.147 203.043 438.524 201.513C438.995 200.047 438.97 197.858 438.45 194.944C437.945 192.108 437.508 190.114 437.14 188.961C436.398 186.168 434.964 184.961 432.837 185.34C431.735 185.536 430.581 185.905 429.377 186.444L428.833 185.444L431.573 178.252C422.423 179.802 414.972 178.571 409.218 174.558C403.543 170.532 399.863 163.793 398.178 154.342C396.479 144.813 397.929 136.997 402.529 130.894C407.208 124.778 414.51 120.835 424.433 119.066C431.443 117.816 437.044 118.239 441.237 120.336C445.416 122.354 447.871 125.41 448.601 129.506C449.331 133.601 448.959 136.755 447.485 138.969C446.089 141.168 443.816 142.548 440.666 143.11C437.594 143.657 434.966 143.273 432.781 141.956C430.596 140.639 429.215 138.366 428.64 135.137C428.387 133.719 428.331 132.267 428.472 130.779L432.37 130.084C432.641 128.41 432.664 126.943 432.439 125.683C431.765 121.903 429.538 120.35 425.757 121.024ZM483.047 139.21L486.473 138.599L484.851 129.502C483.517 122.02 482.192 117.097 480.876 114.731C479.625 112.272 477.819 111.254 475.456 111.675C474.038 111.928 472.809 112.553 471.768 113.551C470.792 114.457 470.423 115.579 470.662 116.918C470.886 118.178 471.354 119.435 472.066 120.69L475.019 120.163C475.944 121.705 476.617 123.657 477.038 126.02C477.446 128.304 476.819 130.488 475.159 132.571C473.485 134.576 471.152 135.846 468.159 136.379C461.386 137.587 457.417 134.922 456.251 128.385C454.524 118.698 461.89 112.387 478.351 109.452C487.723 107.781 494.469 108.244 498.589 110.841C502.773 113.346 505.624 118.851 507.141 127.356L511.417 151.338C512.147 155.434 513.654 157.278 515.938 156.87C518.616 156.393 519.468 152.056 518.494 143.86L520.287 143.662C521.208 150.649 520.758 155.645 518.937 158.652C517.117 161.658 513.607 163.624 508.409 164.551C498.958 166.236 493.004 164.291 490.548 158.716C490.057 161.891 488.915 164.37 487.12 166.153C485.325 167.936 482.459 169.178 478.521 169.881C466.865 171.959 460.187 168.233 458.488 158.704C457.491 153.112 459.015 148.899 463.06 146.065C467.17 143.138 473.832 140.853 483.047 139.21ZM480.913 154.583C481.643 158.679 482.31 161.282 482.915 162.393C483.598 163.49 484.53 163.933 485.711 163.723C486.972 163.498 487.938 162.31 488.611 160.158C489.348 157.914 489.401 155.02 488.769 151.476L486.81 140.489L485.983 140.637C481.1 141.507 479.298 145.526 480.576 152.693L480.913 154.583ZM494.661 79.2401C493.732 91.3511 490.551 97.8911 485.116 98.8601C482.439 99.3375 478.872 99.1608 474.417 98.3299C469.962 97.499 466.986 97.217 465.49 97.4838C462.497 98.0174 460.619 100.018 459.856 103.486L458.354 103.266C459.113 97.0364 460.23 92.3677 461.708 89.2601C463.171 86.0737 465.636 84.1716 469.101 83.5537C471.227 83.1745 474.4 83.4215 478.619 84.2945C482.916 85.1534 485.734 85.4636 487.073 85.2248C490.539 84.6069 492.528 82.5458 493.041 79.0413L494.661 79.2401ZM558.49 130.39L556.699 120.348C555.337 112.709 553.914 107.234 552.43 103.923C551.01 100.519 548.804 99.084 545.811 99.6177C544.078 99.9266 542.752 100.691 541.832 101.912C540.977 103.039 540.516 104.787 540.451 107.156C540.374 110.826 540.982 116.284 542.274 123.53L543.917 132.745C545.447 141.329 546.604 146.446 547.385 148.094C548.245 149.728 549.049 151.048 549.797 152.052C551.001 153.788 552.862 154.431 555.383 153.982C558.454 153.434 560.147 151.304 560.46 147.591C560.719 144.945 560.062 139.211 558.49 130.39ZM555.526 156.15C545.681 157.906 537.789 156.712 531.85 152.571C525.91 148.429 522.105 141.672 520.434 132.3C518.749 122.849 520.135 115.126 524.591 109.13C529.113 103.042 536.257 99.1272 546.023 97.3859C555.789 95.6446 563.495 96.7083 569.142 100.577C574.775 104.367 578.448 111.067 580.161 120.675C583.742 140.758 575.53 152.583 555.526 156.15ZM257.486 304.612C256.545 299.335 258.057 294.597 262.021 290.395C265.985 286.194 272.535 283.279 281.671 281.65C290.807 280.021 298.118 280.465 303.605 282.981C309.171 285.483 312.557 290.12 313.765 296.893C314.158 299.099 314.319 301.142 314.249 303.024C314.164 304.827 313.588 306.839 312.521 309.061C311.52 311.189 310.483 313.122 309.411 314.857C308.417 316.578 306.563 318.94 303.848 321.943C299.797 326.566 295.509 331.231 290.985 335.938C286.447 340.567 283.801 343.273 283.047 344.058L276.768 350.541L305.12 345.485C310.555 344.516 314.203 342.647 316.066 339.877C317.929 337.107 318.883 333.117 318.929 327.908L320.938 327.55L325.591 360.485L270.067 370.385L267.623 356.681L277.596 343.567C284.388 334.717 288.965 327.116 291.326 320.763C293.674 314.331 294.23 307.65 292.994 300.719C291.744 293.709 290.146 289.078 288.201 286.825C286.241 284.492 283.489 283.642 279.945 284.274C276.401 284.906 274.081 286.254 272.987 288.318C271.892 290.383 271.492 292.242 271.787 293.896C272.082 295.549 272.578 296.964 273.275 298.14L276.819 297.508C277.744 299.05 278.417 301.002 278.839 303.365C279.246 305.649 278.619 307.833 276.959 309.916C275.285 311.921 272.834 313.212 269.605 313.787C266.376 314.363 263.673 313.789 261.496 312.064C259.385 310.246 258.048 307.763 257.486 304.612ZM369.011 353.962C357.591 355.998 348.201 353.691 340.839 347.04C333.556 340.375 328.678 330.111 326.207 316.25C323.735 302.389 325.085 291.503 330.257 283.592C335.415 275.602 343.507 270.625 354.533 268.659C365.638 266.679 374.944 268.514 382.452 274.163C390.04 279.799 395.153 290.02 397.793 304.827C400.433 319.633 399.174 331.031 394.017 339.02C388.845 346.931 380.51 351.911 369.011 353.962ZM349.877 308.86L351.752 319.374C353.114 327.014 354.115 332.402 354.756 335.538C355.475 338.66 356.491 341.851 357.804 345.112C359.116 348.372 360.652 350.373 362.409 351.116C364.153 351.781 366.088 351.923 368.215 351.544C370.341 351.165 371.895 350.766 372.877 350.347C373.937 349.914 374.798 349.273 375.459 348.424C376.185 347.482 376.761 346.607 377.186 345.8C377.596 344.914 377.819 343.656 377.853 342.024C377.966 340.379 378.021 338.866 378.019 337.485C378.016 336.104 377.823 334.107 377.438 331.494C376.697 326.425 375.87 321.331 374.957 316.212L373.103 305.816C370.351 290.379 367.984 280.522 366.002 276.243C364.085 271.872 360.449 270.164 355.093 271.119C349.738 272.073 346.883 274.98 346.531 279.837C346.178 284.694 347.293 294.369 349.877 308.86Z" fill="white"/>
<path d="M401.119 279.002C400.178 273.725 401.69 268.986 405.654 264.785C409.618 260.584 416.168 257.669 425.304 256.04C434.44 254.411 441.751 254.854 447.238 257.37C452.804 259.872 456.19 264.51 457.398 271.283C457.791 273.488 457.952 275.532 457.882 277.413C457.797 279.216 457.221 281.228 456.154 283.45C455.153 285.579 454.116 287.511 453.044 289.246C452.05 290.967 450.196 293.329 447.481 296.333C443.43 300.956 439.142 305.621 434.618 310.328C430.08 314.956 427.434 317.663 426.68 318.447L420.401 324.93L448.753 319.875C454.188 318.906 457.836 317.036 459.699 314.266C461.562 311.496 462.516 307.507 462.562 302.298L464.571 301.94L469.224 334.874L413.7 344.775L411.257 331.071L421.229 317.956C428.021 309.107 432.598 301.505 434.96 295.152C437.307 288.72 437.863 282.039 436.627 275.108C435.377 268.099 433.779 263.467 431.834 261.214C429.874 258.882 427.122 258.032 423.578 258.664C420.034 259.296 417.714 260.644 416.62 262.708C415.525 264.772 415.125 266.631 415.42 268.285C415.715 269.939 416.211 271.354 416.908 272.53L420.452 271.898C421.377 273.439 422.05 275.391 422.472 277.754C422.879 280.038 422.253 282.222 420.593 284.306C418.918 286.311 416.467 287.601 413.238 288.177C410.009 288.753 407.306 288.178 405.129 286.453C403.018 284.636 401.681 282.152 401.119 279.002ZM505.378 299.905C504.044 292.423 502.441 287.305 500.568 284.551C498.775 281.783 495.594 280.806 491.026 281.62C486.458 282.435 481.759 285.02 476.928 289.376L474.751 288.789L468.032 251.103L469.669 249.348C474.6 249.2 482.039 248.768 491.988 248.05C501.922 247.254 507.638 246.723 509.134 246.456C510.709 246.175 511.749 245.624 512.252 244.803C512.821 243.889 513.18 242.484 513.329 240.588L515.144 240.509C516.111 252.769 515.853 260.21 514.37 262.831C513.557 264.195 512.363 265.017 510.787 265.298C509.212 265.579 505.785 265.499 500.506 265.059L473.551 262.917L477.047 285.941C482.249 281.845 487.921 279.249 494.064 278.153C500.207 277.058 505.453 276.854 509.801 277.541C514.135 278.15 517.623 279.478 520.263 281.527C525.266 285.429 528.357 290.688 529.537 297.304C531.039 305.731 529.194 312.927 524 318.891C518.871 324.762 511.03 328.639 500.476 330.521C494.806 331.532 489.358 331.284 484.132 329.778C481.294 328.903 478.831 327.392 476.742 325.245C474.717 323.006 473.417 320.272 472.841 317.043C472.251 313.735 472.673 310.856 474.105 308.407C475.616 305.943 477.986 304.423 481.215 303.848C484.523 303.258 487.23 303.628 489.336 304.959C491.507 306.198 492.825 308.116 493.288 310.715C493.737 313.235 493.769 315.464 493.383 317.402L489.485 318.097C489.237 319.442 489.267 320.98 489.576 322.713C489.871 324.367 490.829 325.862 492.448 327.198C494.054 328.456 496.156 328.853 498.755 328.39C501.354 327.926 503.253 327.182 504.452 326.155C505.636 325.05 506.477 323.844 506.976 322.536C507.474 321.228 507.695 319.279 507.639 316.689C507.466 312.982 506.712 307.387 505.378 299.905Z" fill="#7E9796"/>
<line x1="147.609" y1="672.689" x2="182.609" y2="628.689" stroke="white"/>
<line x1="147.609" y1="650.689" x2="182.609" y2="606.689" stroke="white"/>
<line x1="147.609" y1="628.689" x2="182.609" y2="584.689" stroke="white"/>
</svg>
