<svg width="50" height="50" viewBox="0 0 50 50" fill="none" xmlns="http://www.w3.org/2000/svg">
<path d="M47 25.5C47 37.9264 36.9264 48 24.5 48C12.0736 48 2 37.9264 2 25.5C2 13.0736 12.0736 3 24.5 3C36.9264 3 47 13.0736 47 25.5Z" fill="white"/>
<path d="M42.6789 7.32106C37.955 2.59714 31.6769 0 25 0C18.3231 0 12.045 2.59714 7.32106 7.32106C2.59714 12.045 0 18.3231 0 25C0 31.6769 2.59714 37.955 7.32106 42.6789C12.045 47.4029 18.3231 50 25 50C31.6769 50 37.955 47.4029 42.6789 42.6789C47.4029 37.955 50 31.6769 50 25C50 18.3231 47.4029 12.045 42.6789 7.32106ZM25 47.2393C12.7403 47.2393 2.76074 37.2597 2.76074 25C2.76074 12.7403 12.7403 2.76074 25 2.76074C37.2597 2.76074 47.2393 12.7403 47.2393 25C47.2393 37.2597 37.2597 47.2393 25 47.2393Z" fill="#7E9796"/>
<path d="M25.0001 20.7769C28.5891 20.7769 31.5032 17.8525 31.5032 14.2738C31.5032 10.6951 28.5891 7.7605 25.0001 7.7605C21.4112 7.7605 18.4971 10.6848 18.4971 14.2636C18.4971 17.8423 21.4112 20.7769 25.0001 20.7769ZM25.0001 10.5212C27.0656 10.5212 28.7425 12.1981 28.7425 14.2636C28.7425 16.329 27.0656 18.0059 25.0001 18.0059C22.9347 18.0059 21.2578 16.329 21.2578 14.2636C21.2578 12.1981 22.9347 10.5212 25.0001 10.5212Z" fill="#7E9796"/>
<path d="M34.8569 28.681C32.5768 25.3272 29.2639 23.6196 25.0001 23.6196C20.7363 23.6196 17.4234 25.317 15.1432 28.681C13.4459 31.1759 12.362 34.5808 11.9326 38.773C11.8508 39.5296 12.4029 40.2147 13.1596 40.2863C13.9162 40.3681 14.6013 39.8159 14.6729 39.0593C15.542 30.6442 19.0185 26.3804 25.0001 26.3804C30.9817 26.3804 34.4582 30.6442 35.3273 39.0593C35.3989 39.7648 36.0021 40.2965 36.6974 40.2965C36.7485 40.2965 36.7894 40.2965 36.8406 40.2863C37.5972 40.2045 38.1494 39.5296 38.0676 38.773C37.6381 34.5705 36.5543 31.1759 34.8569 28.681Z" fill="#7E9796"/>
</svg>
