<svg width="50" height="50" viewBox="0 0 50 50" fill="none" xmlns="http://www.w3.org/2000/svg">
<path d="M50 25C50 38.8071 38.8071 50 25 50C11.1929 50 0 38.8071 0 25C0 11.1929 11.1929 0 25 0C38.8071 0 50 11.1929 50 25Z" fill="white"/>
<path d="M42.6789 7.32106C37.955 2.59714 31.6769 0 25 0C18.3231 0 12.045 2.59714 7.32106 7.32106C2.59714 12.045 0 18.3231 0 25C0 31.6769 2.59714 37.955 7.32106 42.6789C12.045 47.4029 18.3231 50 25 50C31.6769 50 37.955 47.4029 42.6789 42.6789C47.4029 37.955 50 31.6769 50 25C50 18.3231 47.4029 12.045 42.6789 7.32106ZM25 47.2393C12.7403 47.2393 2.76074 37.2597 2.76074 25C2.76074 12.7403 12.7403 2.76074 25 2.76074C37.2597 2.76074 47.2393 12.7403 47.2393 25C47.2393 37.2597 37.2597 47.2393 25 47.2393Z" fill="#7E9796"/>
<path d="M25 20.7769C28.589 20.7769 31.5031 17.8525 31.5031 14.2738C31.5031 10.6951 28.589 7.7605 25 7.7605C21.4111 7.7605 18.4969 10.6848 18.4969 14.2636C18.4969 17.8423 21.4111 20.7769 25 20.7769ZM25 10.5212C27.0655 10.5212 28.7423 12.1981 28.7423 14.2636C28.7423 16.329 27.0655 18.0059 25 18.0059C22.9346 18.0059 21.2577 16.329 21.2577 14.2636C21.2577 12.1981 22.9346 10.5212 25 10.5212Z" fill="#7E9796"/>
<path d="M34.8569 28.681C32.5767 25.3272 29.2638 23.6196 25 23.6196C20.7362 23.6196 17.4233 25.317 15.1432 28.681C13.4458 31.1759 12.362 34.5808 11.9325 38.773C11.8507 39.5296 12.4029 40.2147 13.1595 40.2863C13.9162 40.3681 14.6012 39.8159 14.6728 39.0593C15.5419 30.6442 19.0184 26.3804 25 26.3804C30.9816 26.3804 34.4581 30.6442 35.3272 39.0593C35.3988 39.7648 36.0021 40.2965 36.6974 40.2965C36.7485 40.2965 36.7894 40.2965 36.8405 40.2863C37.5972 40.2045 38.1493 39.5296 38.0675 38.773C37.6381 34.5705 36.5542 31.1759 34.8569 28.681Z" fill="#7E9796"/>
</svg>
