<svg width="157" height="47" viewBox="0 0 157 47" fill="none" xmlns="http://www.w3.org/2000/svg">
<path d="M50.395 9.18C50.395 12.7733 49.555 16.11 47.875 19.19C46.2417 22.2233 44.0717 25.1867 41.365 28.08C38.705 30.9267 35.695 33.82 32.335 36.76C28.975 39.6533 25.5917 42.7567 22.185 46.07C21.345 46.07 21.135 45.3467 21.555 43.9C22.4417 41.1933 23.165 38.3233 23.725 35.29C24.285 32.2567 24.635 29.2467 24.775 26.26C24.915 23.2733 24.8217 20.4267 24.495 17.72C24.1684 15.0133 23.5617 12.6333 22.675 10.58C21.835 8.48 20.6684 6.82333 19.175 5.61C17.6817 4.35 15.8384 3.72 13.645 3.72C10.4717 3.72 7.85837 4.98 5.80504 7.5C3.75171 9.97333 2.07171 13.7767 0.765039 18.91C0.671706 19.0967 0.531706 19.1667 0.345039 19.12C0.158372 19.0733 0.0650391 18.9567 0.0650391 18.77C0.671706 16.1567 1.41837 13.7533 2.30504 11.56C3.23837 9.36666 4.33504 7.5 5.59504 5.96C6.90171 4.37333 8.41837 3.13667 10.145 2.25C11.8717 1.36333 13.855 0.919996 16.095 0.919996C18.2417 0.919996 20.085 1.45666 21.625 2.53C23.165 3.60333 24.4484 5.07333 25.475 6.94C26.5017 8.80667 27.2484 11.0233 27.715 13.59C28.1817 16.11 28.415 18.8633 28.415 21.85C28.415 24.79 28.1584 27.8933 27.645 31.16C27.1784 34.38 26.5017 37.6233 25.615 40.89C28.8817 38.1833 31.8217 35.64 34.435 33.26C37.0484 30.88 39.2417 28.5467 41.015 26.26C42.7884 23.9267 44.1417 21.57 45.075 19.19C46.055 16.81 46.545 14.2667 46.545 11.56C46.545 9.36666 46.0784 7.59333 45.145 6.24C44.2117 4.88667 43.0684 4.21 41.715 4.21C40.875 4.21 40.1984 4.42 39.685 4.84C39.2184 5.21333 38.7984 5.82 38.425 6.66C37.9584 6.84666 37.725 6.68333 37.725 6.17C37.9584 5.51667 38.285 4.88667 38.705 4.28C39.1717 3.62667 39.6384 3.06667 40.105 2.6C40.6184 2.08666 41.1317 1.69 41.645 1.41C42.1584 1.08333 42.625 0.919996 43.045 0.919996C44.165 0.919996 45.1684 1.15333 46.055 1.62C46.9884 2.08667 47.7584 2.71666 48.365 3.51C49.0184 4.25666 49.5084 5.14333 49.835 6.17C50.2084 7.15 50.395 8.15333 50.395 9.18ZM60.3586 31.58C60.3586 34.24 56.8352 36.06 49.7886 37.04C49.7419 37.5067 49.6952 37.9733 49.6486 38.44C49.6486 38.9067 49.6486 39.3967 49.6486 39.91C49.6486 41.1233 49.9286 42.0567 50.4886 42.71C51.0486 43.3633 51.9352 43.69 53.1486 43.69C54.0352 43.69 54.9452 43.4333 55.8786 42.92C56.8119 42.4067 57.5586 41.7533 58.1186 40.96C58.3052 40.8667 58.4452 40.9133 58.5386 41.1C58.6319 41.24 58.6552 41.4033 58.6086 41.59C57.6752 42.8033 56.4852 43.8533 55.0386 44.74C53.6386 45.58 52.1219 46 50.4886 46C48.8552 46 47.6652 45.6033 46.9186 44.81C46.2186 43.97 45.8686 42.8033 45.8686 41.31C45.8686 39.8633 46.1719 38.37 46.7786 36.83C47.3852 35.2433 48.1552 33.7967 49.0886 32.49C50.0686 31.1833 51.1652 30.1333 52.3786 29.34C53.6386 28.5 54.8986 28.08 56.1586 28.08C57.4186 28.08 58.4219 28.4533 59.1686 29.2C59.9619 29.9 60.3586 30.6933 60.3586 31.58ZM54.2686 29.9C53.1952 29.9 52.2619 30.4133 51.4686 31.44C50.7219 32.42 50.2086 33.96 49.9286 36.06C52.1686 35.8267 53.8252 35.4067 54.8986 34.8C55.9719 34.1467 56.5086 33.3533 56.5086 32.42C56.5086 31.72 56.2986 31.1367 55.8786 30.67C55.4586 30.1567 54.9219 29.9 54.2686 29.9ZM71.2299 28.08C72.2565 28.08 73.0732 28.22 73.6799 28.5C74.3332 28.78 74.6599 29.13 74.6599 29.55C74.6599 30.0633 74.5199 30.6467 74.2399 31.3C74.0065 31.9533 73.7732 32.49 73.5399 32.91C73.4465 33.0033 73.3299 33.0267 73.1899 32.98C73.0499 32.8867 72.9799 32.7467 72.9799 32.56C73.1199 32.2333 73.1899 31.7667 73.1899 31.16C73.1899 30.5067 73.0032 29.97 72.6299 29.55C72.3032 29.13 71.8366 28.92 71.2299 28.92C70.4366 28.92 69.7832 29.1767 69.2699 29.69C68.8032 30.1567 68.5699 30.8333 68.5699 31.72C68.5699 32.4667 68.7565 33.19 69.1299 33.89C69.5499 34.5433 69.9932 35.22 70.4599 35.92C70.9732 36.5733 71.4399 37.2967 71.8599 38.09C72.2799 38.8367 72.4899 39.7 72.4899 40.68C72.4899 42.36 71.8132 43.6667 70.4599 44.6C69.1065 45.5333 67.3332 46 65.1399 46C63.5532 46 62.2932 45.7433 61.3599 45.23C60.4732 44.7167 60.0299 44.1567 60.0299 43.55C60.0299 43.3633 60.0999 43.1067 60.2399 42.78C60.3799 42.4533 60.5665 42.1033 60.7999 41.73C61.0332 41.3567 61.2899 40.9833 61.5699 40.61C61.8499 40.2367 62.1532 39.9333 62.4799 39.7C62.6199 39.6067 62.7365 39.63 62.8299 39.77C62.9699 39.91 62.9932 40.05 62.8999 40.19C62.6199 40.47 62.4099 40.7733 62.2699 41.1C62.1299 41.38 62.0599 41.7767 62.0599 42.29C62.0599 43.13 62.3399 43.83 62.8999 44.39C63.4599 44.9033 64.1832 45.16 65.0699 45.16C66.2832 45.16 67.2165 44.8333 67.8699 44.18C68.5699 43.48 68.9199 42.64 68.9199 41.66C68.9199 40.7733 68.7099 39.9567 68.2899 39.21C67.9165 38.4167 67.4965 37.67 67.0299 36.97C66.5632 36.2233 66.1199 35.4767 65.6999 34.73C65.3265 33.9833 65.1399 33.19 65.1399 32.35C65.1399 31.1367 65.6532 30.1333 66.6799 29.34C67.7065 28.5 69.2232 28.08 71.2299 28.08ZM90.3437 28.43C90.577 28.5233 90.6704 28.6633 90.6237 28.85C90.577 28.99 90.367 29.1067 89.9937 29.2C89.2937 29.2 88.477 29.2233 87.5437 29.27C86.657 29.3167 85.7004 29.3867 84.6737 29.48C83.7404 31.7667 82.9704 34.0067 82.3637 36.2C81.757 38.3467 81.4537 40.0967 81.4537 41.45C81.4537 43.0367 82.0604 43.83 83.2737 43.83C84.487 43.83 85.8404 42.78 87.3337 40.68C87.4737 40.5867 87.5904 40.5867 87.6837 40.68C87.8237 40.7733 87.8704 40.9367 87.8237 41.17C87.0304 42.4767 86.027 43.62 84.8137 44.6C83.6004 45.5333 82.4104 46 81.2437 46C80.0304 46 79.1204 45.72 78.5137 45.16C77.9537 44.5533 77.6737 43.7367 77.6737 42.71C77.6737 41.3567 78.0004 39.49 78.6537 37.11C79.307 34.73 80.147 32.3033 81.1737 29.83C79.9604 29.97 78.8404 30.1567 77.8137 30.39C77.5804 30.3433 77.5104 30.2267 77.6037 30.04C77.7437 29.8533 77.9537 29.6667 78.2337 29.48C78.5604 29.2467 78.9337 29.06 79.3537 28.92C79.7737 28.7333 80.1704 28.64 80.5437 28.64C80.7304 28.64 80.917 28.64 81.1037 28.64C81.2904 28.64 81.477 28.6167 81.6637 28.57C82.2704 27.2167 82.9004 25.91 83.5537 24.65C84.207 23.39 84.8604 22.2467 85.5137 21.22C85.7937 20.8933 86.167 20.6133 86.6337 20.38C87.147 20.1 87.637 19.89 88.1037 19.75C88.5704 19.61 88.9437 19.54 89.2237 19.54C89.5504 19.4933 89.6904 19.5633 89.6437 19.75C88.8504 20.9633 88.057 22.3167 87.2637 23.81C86.517 25.3033 85.7937 26.8667 85.0937 28.5C85.9804 28.4533 86.867 28.43 87.7537 28.43C88.687 28.43 89.5504 28.43 90.3437 28.43ZM98.9904 25.07C98.8504 25.21 98.687 25.21 98.5004 25.07C98.3604 24.93 98.2437 24.7433 98.1504 24.51C98.057 24.23 98.0104 23.95 98.0104 23.67C98.0104 23.3433 98.0804 23.0633 98.2204 22.83C98.7337 22.1767 99.4804 21.36 100.46 20.38C101.487 19.3533 102.537 18.49 103.61 17.79C103.704 17.7433 103.82 17.79 103.96 17.93C104.1 18.0233 104.147 18.1167 104.1 18.21C103.12 19.0967 102.187 20.17 101.3 21.43C100.414 22.6433 99.6437 23.8567 98.9904 25.07ZM91.5004 32.98C91.3604 33.0733 91.2437 33.05 91.1504 32.91C91.057 32.7233 91.0337 32.56 91.0804 32.42C92.807 31.02 95.2104 29.5733 98.2904 28.08C98.6637 28.08 98.8504 28.29 98.8504 28.71C98.2437 29.7833 97.637 30.95 97.0304 32.21C96.4704 33.47 95.957 34.73 95.4904 35.99C95.0704 37.2033 94.7204 38.3933 94.4404 39.56C94.1604 40.68 94.0204 41.6133 94.0204 42.36C94.0204 43.2933 94.347 43.76 95.0004 43.76C95.5137 43.76 96.0037 43.55 96.4704 43.13C96.9837 42.6633 97.567 42.08 98.2204 41.38C98.3137 41.2867 98.4304 41.31 98.5704 41.45C98.7104 41.5433 98.7337 41.7067 98.6404 41.94C97.6137 43.1533 96.587 44.1333 95.5604 44.88C94.5804 45.6267 93.6237 46 92.6904 46C91.057 46 90.2404 45.23 90.2404 43.69C90.2404 42.85 90.357 41.87 90.5904 40.75C90.8704 39.5833 91.2204 38.4167 91.6404 37.25C92.107 36.0367 92.597 34.87 93.1104 33.75C93.6704 32.5833 94.2304 31.58 94.7904 30.74C94.277 31.02 93.6937 31.37 93.0404 31.79C92.4337 32.21 91.9204 32.6067 91.5004 32.98ZM102.981 46C102.561 46 102.211 45.8833 101.931 45.65C101.698 45.4167 101.581 44.9733 101.581 44.32C101.581 44.04 101.675 43.7133 101.861 43.34C102.048 42.9667 102.305 42.6167 102.631 42.29C102.958 41.9167 103.331 41.6133 103.751 41.38C104.171 41.1467 104.591 41.03 105.011 41.03C105.291 41.03 105.548 41.1467 105.781 41.38C106.015 41.5667 106.131 41.8233 106.131 42.15C106.131 42.5233 106.038 42.9433 105.851 43.41C105.665 43.8767 105.408 44.2967 105.081 44.67C104.755 45.0433 104.405 45.37 104.031 45.65C103.658 45.8833 103.308 46 102.981 46ZM135.05 31.3C135.05 30.32 134.7 29.83 134 29.83C132.6 29.83 130.943 31.1367 129.03 33.75C127.116 36.3167 125.343 40.0033 123.71 44.81C123.616 45.09 123.22 45.37 122.52 45.65C121.866 45.8833 121.236 46 120.63 46C120.07 46 119.86 45.79 120 45.37C120.28 44.53 120.653 43.48 121.12 42.22C121.633 40.96 122.1 39.6767 122.52 38.37C122.986 37.0167 123.383 35.7567 123.71 34.59C124.036 33.3767 124.2 32.4433 124.2 31.79C124.2 30.53 123.803 29.9 123.01 29.9C121.796 29.9 120.256 31.16 118.39 33.68C116.57 36.1533 114.796 39.8633 113.07 44.81C112.976 45.09 112.603 45.37 111.95 45.65C111.296 45.8833 110.713 46 110.2 46C109.966 46 109.78 45.9533 109.64 45.86C109.5 45.7667 109.476 45.6033 109.57 45.37C109.943 44.3433 110.34 43.2233 110.76 42.01C111.18 40.75 111.6 39.49 112.02 38.23C112.44 36.97 112.813 35.7333 113.14 34.52C113.513 33.3067 113.84 32.1633 114.12 31.09C114.26 30.25 114.12 29.83 113.7 29.83C113.326 29.83 112.883 30.0867 112.37 30.6C111.856 31.1133 111.343 31.72 110.83 32.42C110.69 32.5133 110.55 32.5133 110.41 32.42C110.27 32.28 110.246 32.14 110.34 32C111.04 30.9267 111.88 30.0167 112.86 29.27C113.84 28.4767 114.89 28.08 116.01 28.08C116.756 28.08 117.246 28.3133 117.48 28.78C117.76 29.2467 117.83 29.8067 117.69 30.46C117.503 31.4867 117.316 32.35 117.13 33.05C116.943 33.75 116.686 34.5433 116.36 35.43C117.573 33.2833 118.903 31.5333 120.35 30.18C121.843 28.78 123.43 28.08 125.11 28.08C125.95 28.08 126.58 28.3133 127 28.78C127.466 29.2467 127.7 29.8067 127.7 30.46C127.7 32.28 127.373 34.1233 126.72 35.99C128.213 33.4233 129.66 31.4633 131.06 30.11C132.506 28.7567 134.233 28.08 136.24 28.08C137.173 28.08 137.826 28.3367 138.2 28.85C138.62 29.3167 138.83 29.8067 138.83 30.32C138.83 31.1133 138.643 32 138.27 32.98C137.943 33.9133 137.546 34.9167 137.08 35.99C136.66 37.0167 136.263 38.0667 135.89 39.14C135.563 40.1667 135.4 41.17 135.4 42.15C135.4 43.3167 135.773 43.9 136.52 43.9C137.266 43.9 138.27 43.13 139.53 41.59C139.67 41.4967 139.786 41.52 139.88 41.66C140.02 41.8 140.043 41.9633 139.95 42.15C139.016 43.3167 138.06 44.25 137.08 44.95C136.1 45.65 135.143 46 134.21 46C132.67 46 131.9 45.1133 131.9 43.34C131.9 42.22 132.063 41.1 132.39 39.98C132.716 38.8133 133.066 37.7167 133.44 36.69C133.86 35.6167 134.233 34.6133 134.56 33.68C134.886 32.7467 135.05 31.9533 135.05 31.3ZM156.814 31.58C156.814 34.24 153.29 36.06 146.244 37.04C146.197 37.5067 146.15 37.9733 146.104 38.44C146.104 38.9067 146.104 39.3967 146.104 39.91C146.104 41.1233 146.384 42.0567 146.944 42.71C147.504 43.3633 148.39 43.69 149.604 43.69C150.49 43.69 151.4 43.4333 152.334 42.92C153.267 42.4067 154.014 41.7533 154.574 40.96C154.76 40.8667 154.9 40.9133 154.994 41.1C155.087 41.24 155.11 41.4033 155.064 41.59C154.13 42.8033 152.94 43.8533 151.494 44.74C150.094 45.58 148.577 46 146.944 46C145.31 46 144.12 45.6033 143.374 44.81C142.674 43.97 142.324 42.8033 142.324 41.31C142.324 39.8633 142.627 38.37 143.234 36.83C143.84 35.2433 144.61 33.7967 145.544 32.49C146.524 31.1833 147.62 30.1333 148.834 29.34C150.094 28.5 151.354 28.08 152.614 28.08C153.874 28.08 154.877 28.4533 155.624 29.2C156.417 29.9 156.814 30.6933 156.814 31.58ZM150.724 29.9C149.65 29.9 148.717 30.4133 147.924 31.44C147.177 32.42 146.664 33.96 146.384 36.06C148.624 35.8267 150.28 35.4067 151.354 34.8C152.427 34.1467 152.964 33.3533 152.964 32.42C152.964 31.72 152.754 31.1367 152.334 30.67C151.914 30.1567 151.377 29.9 150.724 29.9Z" fill="white"/>
</svg>
