<svg width="204" height="43" viewBox="0 0 204 43" fill="none" xmlns="http://www.w3.org/2000/svg">
<path d="M0.77832 3.64551H7.12598L15.0605 35.042H15.915L22.4336 3.64551H28.7568L19.6992 42H11.3008L0.77832 3.64551ZM31.5645 27.9619C31.5645 25.488 31.8981 23.3558 32.5654 21.5654C33.249 19.7751 34.1523 18.3021 35.2754 17.1465C36.4147 15.9909 37.7168 15.1364 39.1816 14.583C40.6628 14.0296 42.2008 13.7529 43.7959 13.7529C45.2933 13.7529 46.6768 13.9971 47.9463 14.4854C49.2158 14.9574 50.3063 15.6735 51.2178 16.6338C52.1455 17.5941 52.8617 18.7985 53.3662 20.2471C53.887 21.6794 54.1475 23.3477 54.1475 25.252C54.1475 26.0983 54.0824 26.9284 53.9521 27.7422C53.8382 28.556 53.6429 29.3372 53.3662 30.0859H37.8389C38.0342 31.7624 38.3678 33.1133 38.8398 34.1387C39.3118 35.1641 39.8896 35.9616 40.5732 36.5312C41.2568 37.1009 42.0218 37.4834 42.8682 37.6787C43.7145 37.874 44.6178 37.9717 45.5781 37.9717C46.8639 37.9717 48.0277 37.8008 49.0693 37.459C50.111 37.1172 51.1445 36.6615 52.1699 36.0918V40.7793C50.9004 41.4303 49.6227 41.8861 48.3369 42.1465C47.0674 42.4232 45.7979 42.5615 44.5283 42.5615C42.5264 42.5615 40.7197 42.236 39.1084 41.585C37.5133 40.9339 36.1543 39.9899 35.0312 38.7529C33.9245 37.4997 33.07 35.9697 32.4678 34.1631C31.8656 32.3402 31.5645 30.2731 31.5645 27.9619ZM48.2881 26.1064C48.4508 24.9346 48.4753 23.8685 48.3613 22.9082C48.2474 21.9479 47.987 21.126 47.5801 20.4424C47.1895 19.7588 46.6605 19.238 45.9932 18.8799C45.3258 18.5055 44.5283 18.3184 43.6006 18.3184C41.859 18.3184 40.4512 18.9857 39.377 20.3203C38.319 21.6387 37.7493 23.5674 37.668 26.1064H48.2881ZM60.2266 35.9697C61.431 36.7021 62.668 37.2311 63.9375 37.5566C65.207 37.8659 66.3219 38.0205 67.2822 38.0205C68.7145 38.0205 69.8213 37.752 70.6025 37.2148C71.3838 36.6615 71.7744 35.8965 71.7744 34.9199C71.7744 34.3665 71.6361 33.8945 71.3594 33.5039C71.099 33.097 70.7246 32.7145 70.2363 32.3564C69.748 31.9821 69.154 31.6077 68.4541 31.2334C67.7705 30.859 67.0055 30.4115 66.1592 29.8906C65.3779 29.4186 64.6211 28.9222 63.8887 28.4014C63.1562 27.8643 62.5052 27.262 61.9355 26.5947C61.3659 25.9274 60.9102 25.1706 60.5684 24.3242C60.2266 23.4616 60.0557 22.4688 60.0557 21.3457C60.0557 20.2389 60.2591 19.2217 60.666 18.2939C61.0892 17.3662 61.6995 16.5687 62.4971 15.9014C63.3109 15.2178 64.3118 14.6888 65.5 14.3145C66.7044 13.9401 68.0798 13.7529 69.626 13.7529C70.0329 13.7529 70.4886 13.7773 70.9932 13.8262C71.514 13.8587 72.0348 13.9238 72.5557 14.0215C73.0928 14.1029 73.6055 14.2249 74.0938 14.3877C74.5983 14.5342 75.0459 14.7132 75.4365 14.9248V19.5146C75.1273 19.3356 74.7529 19.1647 74.3135 19.002C73.8903 18.8229 73.4346 18.6764 72.9463 18.5625C72.4743 18.4323 71.9941 18.3346 71.5059 18.2695C71.0176 18.1882 70.5618 18.1475 70.1387 18.1475C69.39 18.1475 68.7389 18.2288 68.1855 18.3916C67.6484 18.5544 67.2008 18.7741 66.8428 19.0508C66.501 19.3112 66.2406 19.6286 66.0615 20.0029C65.8988 20.3773 65.8174 20.7679 65.8174 21.1748C65.8174 21.6956 65.9313 22.1676 66.1592 22.5908C66.4033 22.9977 66.737 23.3883 67.1602 23.7627C67.5833 24.137 68.0879 24.5114 68.6738 24.8857C69.276 25.2438 69.9434 25.6426 70.6758 26.082C71.4408 26.5378 72.222 27.026 73.0195 27.5469C73.8171 28.0677 74.5332 28.6618 75.168 29.3291C75.819 29.9964 76.348 30.7695 76.7549 31.6484C77.1781 32.5111 77.3896 33.512 77.3896 34.6514C77.3896 35.8232 77.1618 36.8975 76.7061 37.874C76.2666 38.8343 75.6237 39.6644 74.7773 40.3643C73.931 41.0641 72.8893 41.6094 71.6523 42C70.4316 42.3743 69.0482 42.5615 67.502 42.5615C66.2812 42.5615 65.028 42.4313 63.7422 42.1709C62.4727 41.9105 61.3008 41.5199 60.2266 40.999V35.9697ZM85.1777 18.6113H82.1992V14.29H85.3242L85.9346 5.8916H91.0371V14.29H96.1641V18.6113H91.0371V34.3828C91.0371 35.0013 91.1022 35.514 91.2324 35.9209C91.3789 36.3115 91.5824 36.6208 91.8428 36.8486C92.1195 37.0765 92.4368 37.2393 92.7949 37.3369C93.1693 37.4346 93.5924 37.4834 94.0645 37.4834C94.7643 37.4834 95.3421 37.4183 95.7979 37.2881C96.2536 37.1579 96.6523 37.0277 96.9941 36.8975V41.7314C96.4408 41.9268 95.8141 42.1139 95.1143 42.293C94.4307 42.472 93.568 42.5615 92.5264 42.5615C91.387 42.5615 90.3617 42.3988 89.4502 42.0732C88.555 41.764 87.79 41.2839 87.1553 40.6328C86.5205 39.9818 86.0322 39.1598 85.6904 38.167C85.3486 37.1742 85.1777 36.0023 85.1777 34.6514V18.6113ZM105.954 8.18652C105.368 8.18652 104.839 8.09701 104.367 7.91797C103.895 7.73893 103.488 7.48665 103.146 7.16113C102.805 6.83561 102.544 6.44499 102.365 5.98926C102.186 5.53353 102.097 5.02897 102.097 4.47559C102.097 3.9222 102.186 3.42578 102.365 2.98633C102.544 2.5306 102.805 2.13997 103.146 1.81445C103.488 1.48893 103.895 1.23665 104.367 1.05762C104.839 0.878581 105.368 0.789062 105.954 0.789062C107.159 0.789062 108.111 1.13086 108.811 1.81445C109.527 2.48177 109.885 3.36882 109.885 4.47559C109.885 5.58236 109.527 6.47754 108.811 7.16113C108.111 7.84473 107.159 8.18652 105.954 8.18652ZM103.024 14.29H108.884V42H103.024V14.29ZM117.453 38.0449C117.453 37.3939 117.559 36.7998 117.771 36.2627C117.998 35.7093 118.316 35.2373 118.723 34.8467C119.13 34.4561 119.618 34.1549 120.188 33.9434C120.773 33.7318 121.416 33.626 122.116 33.626C122.849 33.626 123.508 33.7318 124.094 33.9434C124.68 34.1549 125.176 34.4561 125.583 34.8467C126.006 35.2373 126.324 35.7093 126.535 36.2627C126.763 36.7998 126.877 37.3939 126.877 38.0449C126.877 38.7122 126.763 39.3145 126.535 39.8516C126.324 40.3887 126.006 40.8525 125.583 41.2432C125.176 41.6338 124.68 41.9349 124.094 42.1465C123.508 42.3581 122.849 42.4639 122.116 42.4639C121.416 42.4639 120.773 42.3581 120.188 42.1465C119.618 41.9349 119.13 41.6338 118.723 41.2432C118.316 40.8525 117.998 40.3887 117.771 39.8516C117.559 39.3145 117.453 38.7122 117.453 38.0449ZM135.178 14.29H140.378L140.72 17.3906C141.566 16.3001 142.648 15.4212 143.967 14.7539C145.301 14.0866 146.929 13.7529 148.85 13.7529C150.754 13.7529 152.365 14.1354 153.684 14.9004C155.018 15.6654 156.035 16.8372 156.735 18.416C157.142 17.7324 157.622 17.1058 158.176 16.5361C158.745 15.9665 159.388 15.4782 160.104 15.0713C160.837 14.6481 161.651 14.3226 162.546 14.0947C163.457 13.8669 164.466 13.7529 165.573 13.7529C168.422 13.7529 170.627 14.6237 172.189 16.3652C173.752 18.1068 174.533 20.7679 174.533 24.3486V42H168.625V24.5439C168.625 22.4281 168.218 20.8656 167.404 19.8564C166.59 18.8311 165.443 18.3184 163.962 18.3184C162.692 18.3184 161.512 18.6032 160.422 19.1729C159.331 19.7262 158.404 20.5645 157.639 21.6875C157.688 22.1107 157.728 22.542 157.761 22.9814C157.793 23.4209 157.81 23.8766 157.81 24.3486V42H151.901V24.5439C151.901 22.4281 151.494 20.8656 150.681 19.8564C149.867 18.8311 148.719 18.3184 147.238 18.3184C146.018 18.3184 144.878 18.5788 143.82 19.0996C142.762 19.6042 141.851 20.3854 141.086 21.4434V42H135.178V14.29ZM180.783 27.9619C180.783 25.488 181.117 23.3558 181.784 21.5654C182.468 19.7751 183.371 18.3021 184.494 17.1465C185.633 15.9909 186.936 15.1364 188.4 14.583C189.882 14.0296 191.42 13.7529 193.015 13.7529C194.512 13.7529 195.896 13.9971 197.165 14.4854C198.435 14.9574 199.525 15.6735 200.437 16.6338C201.364 17.5941 202.08 18.7985 202.585 20.2471C203.106 21.6794 203.366 23.3477 203.366 25.252C203.366 26.0983 203.301 26.9284 203.171 27.7422C203.057 28.556 202.862 29.3372 202.585 30.0859H187.058C187.253 31.7624 187.587 33.1133 188.059 34.1387C188.531 35.1641 189.108 35.9616 189.792 36.5312C190.476 37.1009 191.241 37.4834 192.087 37.6787C192.933 37.874 193.837 37.9717 194.797 37.9717C196.083 37.9717 197.246 37.8008 198.288 37.459C199.33 37.1172 200.363 36.6615 201.389 36.0918V40.7793C200.119 41.4303 198.841 41.8861 197.556 42.1465C196.286 42.4232 195.017 42.5615 193.747 42.5615C191.745 42.5615 189.938 42.236 188.327 41.585C186.732 40.9339 185.373 39.9899 184.25 38.7529C183.143 37.4997 182.289 35.9697 181.687 34.1631C181.084 32.3402 180.783 30.2731 180.783 27.9619ZM197.507 26.1064C197.67 24.9346 197.694 23.8685 197.58 22.9082C197.466 21.9479 197.206 21.126 196.799 20.4424C196.408 19.7588 195.879 19.238 195.212 18.8799C194.545 18.5055 193.747 18.3184 192.819 18.3184C191.078 18.3184 189.67 18.9857 188.596 20.3203C187.538 21.6387 186.968 23.5674 186.887 26.1064H197.507Z" fill="white"/>
</svg>
