<svg width="30" height="31" viewBox="0 0 30 31" fill="none" xmlns="http://www.w3.org/2000/svg">
<path fill-rule="evenodd" clip-rule="evenodd" d="M3.75288 13.1845C3.75288 10.6868 4.74136 8.29142 6.50087 6.5253C8.26037 4.75918 10.6468 3.76699 13.1351 3.76699C15.6234 3.76699 18.0098 4.75918 19.7693 6.5253C21.5288 8.29142 22.5173 10.6868 22.5173 13.1845C22.5173 15.6821 21.5288 18.0775 19.7693 19.8436C18.0098 21.6097 15.6234 22.6019 13.1351 22.6019C10.6468 22.6019 8.26037 21.6097 6.50087 19.8436C4.74136 18.0775 3.75288 15.6821 3.75288 13.1845ZM13.1351 0C11.0538 0 9.00232 0.496437 7.14968 1.4484C5.29705 2.40036 3.6963 3.7806 2.47935 5.47537C1.26241 7.17014 0.464103 9.13092 0.150228 11.1961C-0.163647 13.2613 0.0158928 15.3718 0.674051 17.3537C1.33221 19.3356 2.45015 21.1322 3.93573 22.5953C5.42132 24.0584 7.23202 25.1463 9.21863 25.7692C11.2052 26.3921 13.3109 26.5322 15.362 26.178C17.4132 25.8238 19.3511 24.9855 21.0161 23.732C21.0695 23.8033 21.1278 23.8706 21.1906 23.9335L26.82 29.584C27.1739 29.9271 27.6479 30.117 28.1399 30.1127C28.6319 30.1084 29.1025 29.9103 29.4504 29.5611C29.7983 29.2119 29.9957 28.7395 29.9999 28.2456C30.0042 27.7518 29.8151 27.276 29.4733 26.9208L23.8439 21.2703C23.7812 21.2072 23.7141 21.1487 23.6432 21.0951C25.1068 19.1363 25.998 16.8071 26.2171 14.3685C26.4362 11.9299 25.9744 9.4782 24.8835 7.28819C23.7926 5.09817 22.1156 3.25635 20.0406 1.96909C17.9656 0.681829 15.5744 0 13.1351 0Z" fill="#7E9796"/>
</svg>
