<svg width="50" height="50" viewBox="0 0 50 50" fill="none" xmlns="http://www.w3.org/2000/svg">
<path d="M47 27.5C47 39.9264 36.9264 50 24.5 50C12.0736 50 2 39.9264 2 27.5C2 15.0736 12.0736 5 24.5 5C36.9264 5 47 15.0736 47 27.5Z" fill="white"/>
<path d="M40.6909 34.8428L37.662 27.4535C37.7012 27.3817 38.7195 20.4951 38.7195 20.4951C38.7522 19.9794 38.5237 18.9285 37.3618 18.9285H32.6032C32.1071 14.0981 28.9151 9 24.9854 9C21.0558 9 17.9226 14.0981 17.433 18.9285H13.0138C12.5569 18.9024 11.519 19.405 11.6561 20.4951L12.5699 26.9705L9.33879 34.8428C7.78522 38.9421 11.9498 41.0375 14.2345 40.9657H35.8604C38.2626 41.0048 42.1204 39.0139 40.6909 34.8428ZM25.0507 11.5849C27.1918 11.5849 29.5025 15.2273 29.9399 18.9285H20.1681C20.625 15.2339 22.9162 11.5849 25.0507 11.5849ZM35.7952 21.644L35.1816 25.7237H15.0504L14.4368 21.644H35.7952ZM35.7952 38.3089H14.2345C13.1509 38.3416 11.3362 37.5583 11.8519 35.8611L14.9134 28.3804H35.1098L38.1712 35.8611C38.7652 37.3102 37.0941 38.3089 35.7952 38.3089Z" fill="#7E9796"/>
</svg>
